PathFileType	4	(X/Y/Z)	C:/Users/opensim2020/Desktop/walking_exp_matlab/subject03_walking11_straight_02.trc	
DataRate	CameraRate	NumFrames	NumMarkers	Units	OrigDataRate	OrigDataStartFrame	OrigNumFrames	
100.00	100.00	8	46	mm	100.00	1799	357	
Frame#	Time	LFHD			RFHD			LBHD			RBHD			C7			T10			CLAV			STRN			RBAK			LSHO			LUPA			LELB			LFRM			LWRA			LWRB			LFIN			RSHO			RUPA			RELB			RFRM			RWRA			RWRB			RFIN			LASI			RASI			LPSI			RPSI			LTHI			LKNE			LTIB			LANK			LHEE			LTOE			RTHI			RKNE			RTIB			RANK			RHEE			RTOE			*39			*40			*41			*42			*43			*44			*45			
		X1	Y1	Z1	X2	Y2	Z2	X3	Y3	Z3	X4	Y4	Z4	X5	Y5	Z5	X6	Y6	Z6	X7	Y7	Z7	X8	Y8	Z8	X9	Y9	Z9	X10	Y10	Z10	X11	Y11	Z11	X12	Y12	Z12	X13	Y13	Z13	X14	Y14	Z14	X15	Y15	Z15	X16	Y16	Z16	X17	Y17	Z17	X18	Y18	Z18	X19	Y19	Z19	X20	Y20	Z20	X21	Y21	Z21	X22	Y22	Z22	X23	Y23	Z23	X24	Y24	Z24	X25	Y25	Z25	X26	Y26	Z26	X27	Y27	Z27	X28	Y28	Z28	X29	Y29	Z29	X30	Y30	Z30	X31	Y31	Z31	X32	Y32	Z32	X33	Y33	Z33	X34	Y34	Z34	X35	Y35	Z35	X36	Y36	Z36	X37	Y37	Z37	X38	Y38	Z38	X39	Y39	Z39	X40	Y40	Z40	X41	Y41	Z41	X42	Y42	Z42	X43	Y43	Z43	X44	Y44	Z44	X45	Y45	Z45	X46	Y46	Z46	

1	0.000	-952.01129	1126.28137	1609.02661	-1084.66370	1125.11499	1618.30103	-960.10925	1249.78735	1554.03918	-1090.39136	1243.64868	1563.11206	-1031.42554	1272.09058	1408.15088	-1036.94446	1321.60242	1098.22595	-1020.09906	1154.46692	1324.58325	-1013.47253	1122.03455	1157.00708	-1138.09021	1322.06262	1239.14880	-869.31409	1217.44238	1363.26489	-804.39258	1261.58313	1167.81982	-793.21613	1269.46191	1044.64319	-793.30157	1241.01990	918.07727	-825.90656	1211.84900	803.66498	-780.47229	1243.92627	804.48578	-788.76465	1219.94861	724.31207	-1181.96057	1177.88074	1352.36157	-1258.99487	1146.30859	1135.68335	-1270.17749	1111.60254	1028.37854	-1267.57166	1070.22266	898.20410	-1225.67664	1031.27893	809.76764	-1274.57947	1051.02844	800.08691	-1260.21838	1015.40430	736.27838	-907.98315	1167.82312	930.81152	-1144.85962	1154.23389	928.79633	-964.20386	1328.13843	948.18066	-1113.60608	1316.46619	963.25470	-856.78265	1153.76208	632.97479	-894.77631	1080.14868	470.90866	-889.86389	1081.51331	278.18118	-921.35669	1042.00891	70.08344	-960.71484	1073.23499	28.10746	-942.55389	891.37286	58.22916	-1182.86743	1236.30176	637.75415	-1147.86792	1251.57690	458.53439	-1153.23682	1327.39392	281.04031	-1104.18506	1392.35291	73.36158	-1054.66162	1439.10071	44.01485	-1091.22998	1253.35718	30.29605	-1001.35437	1212.79065	1664.32190																		 
2	0.010	-951.04608	1119.36145	1608.05237	-1083.66248	1118.03296	1617.47803	-959.33118	1242.87207	1552.99390	-1089.64197	1236.52234	1562.16626	-1030.63037	1264.89063	1407.27917	-1036.18958	1314.76709	1097.43689	-1019.46210	1147.29736	1323.60657	-1013.10345	1115.09766	1155.87122	-1137.41833	1315.16028	1238.53333	-868.52338	1210.16113	1362.20984	-804.52856	1255.18066	1166.68250	-793.85516	1263.77612	1043.52380	-794.05725	1236.15747	916.74219	-826.66309	1207.42419	802.21637	-781.49005	1239.98486	803.18549	-789.87164	1216.43176	722.77991	-1181.21851	1170.73169	1351.53015	-1258.48682	1139.06934	1135.02954	-1269.66455	1104.03369	1027.82385	-1266.59094	1061.77808	897.90240	-1224.32312	1022.28473	809.97119	-1273.21960	1041.92126	799.92957	-1258.60046	1005.83905	736.40234	-907.70099	1160.47021	929.69855	-1144.69055	1147.69788	927.93439	-963.56732	1321.00171	947.12201	-1113.02515	1309.84253	962.28003	-856.22736	1148.87244	630.93677	-895.90552	1075.21191	469.21774	-890.33081	1070.88147	277.37219	-920.49725	1023.91852	70.58337	-960.37952	1053.13293	27.51630	-940.55872	872.30756	62.87295	-1182.73059	1231.26538	637.04822	-1147.93335	1247.70911	457.98636	-1153.19788	1325.18359	281.07117	-1104.13647	1392.11292	74.01766	-1054.58362	1438.91028	45.05120	-1091.30859	1253.30713	30.24079	-1000.41522	1205.88281	1663.32556																		 
3	0.020	-950.01849	1112.41919	1607.16040	-1082.65979	1110.95959	1616.68665	-958.54437	1235.76855	1551.85681	-1088.79797	1229.36011	1561.22253	-1029.73315	1257.67297	1406.39673	-1035.37036	1307.81494	1096.59521	-1018.74774	1140.07080	1322.64844	-1012.71332	1108.03357	1154.89209	-1136.55151	1308.29431	1237.90417	-867.66943	1202.76135	1361.16125	-804.51819	1248.43225	1165.48840	-794.39233	1257.81921	1042.36768	-794.70746	1231.05603	915.35223	-826.93811	1201.97534	800.82599	-782.36731	1235.93530	801.94952	-791.02374	1212.87573	721.24158	-1180.40564	1163.65442	1350.67664	-1257.88379	1131.95264	1134.34436	-1269.06189	1096.60889	1027.23059	-1265.56750	1053.51575	897.57208	-1222.94385	1013.48431	810.04242	-1271.78870	1033.05164	799.71576	-1256.89404	996.58685	736.50244	-907.22882	1152.59351	928.60767	-1144.52771	1141.12659	927.04065	-962.82697	1313.74011	946.10394	-1112.31689	1303.17017	961.29822	-855.79376	1143.52258	629.03619	-896.93872	1070.27795	467.42831	-890.85645	1061.01233	276.70554	-919.89893	1007.44104	71.22386	-960.00000	1035.11389	27.43627	-938.37817	855.12012	67.06136	-1182.70508	1226.10364	636.41913	-1147.93359	1243.64478	457.44791	-1153.15967	1322.90491	281.24500	-1104.15332	1391.66370	74.59450	-1054.46094	1438.70935	46.17913	-1091.44641	1253.13110	30.14713	-999.68817	1198.98340	1662.57043																		 
4	0.030	-948.95337	1105.47900	1606.30737	-1081.58911	1103.88440	1615.93176	-957.59485	1228.68750	1550.75562	-1087.93396	1222.19897	1560.30042	-1028.71741	1250.44666	1405.56262	-1034.49011	1300.77783	1095.76807	-1017.98218	1132.76892	1321.73413	-1012.20477	1100.88672	1153.66406	-1135.54492	1301.43909	1237.27319	-866.72882	1195.19763	1360.11877	-804.35645	1241.43774	1164.33936	-794.79932	1251.46973	1041.16589	-795.26166	1225.68848	913.97052	-827.74786	1197.31775	799.29340	-783.34833	1231.55383	800.50909	-792.18762	1209.24426	719.62537	-1179.58875	1156.62939	1349.88208	-1257.16333	1125.00098	1133.65100	-1268.41492	1089.32715	1026.60730	-1264.52161	1045.48279	897.21698	-1221.56445	1004.84290	810.12415	-1270.32727	1024.44202	799.48322	-1255.18188	987.50409	736.59039	-906.89160	1144.83313	927.51599	-1144.49121	1134.60620	926.19373	-961.96558	1306.20667	945.08710	-1111.48499	1296.46753	960.29791	-855.64893	1137.68970	627.38623	-897.91937	1065.27771	465.66632	-891.36554	1052.00708	276.04413	-919.49487	993.09357	71.76028	-959.86975	1019.16736	27.48928	-935.96704	839.93024	70.41780	-1183.31628	1221.16577	636.24603	-1147.95349	1239.32617	456.94449	-1152.63159	1320.64185	281.35944	-1104.10022	1391.19250	75.39096	-1054.42969	1438.34729	47.29550	-1091.60596	1253.05688	30.19583	-998.48822	1192.01245	1661.44202																		 
5	0.040	-947.88977	1098.42993	1605.47986	-1080.53271	1096.75110	1615.21387	-956.68744	1221.56702	1549.83496	-1086.96191	1214.97900	1559.39539	-1027.57861	1243.04224	1404.73669	-1033.48889	1293.63550	1094.99304	-1017.28070	1125.45874	1320.90283	-1011.86188	1093.59375	1152.96619	-1134.38452	1294.56946	1236.63562	-865.73218	1187.46875	1359.08557	-804.06641	1234.22168	1163.19678	-795.03290	1244.89917	1039.97607	-795.81525	1220.20215	912.44916	-828.97290	1193.50012	797.60760	-784.62231	1226.98499	798.89935	-793.33710	1205.42664	718.01001	-1178.76819	1149.64197	1349.10925	-1256.39587	1118.09924	1132.94214	-1267.70483	1082.20813	1025.95874	-1263.39441	1037.64026	896.82330	-1220.15002	996.46600	810.24304	-1268.81360	1016.06244	799.22394	-1253.45679	978.78271	736.64496	-906.75482	1137.29309	926.40503	-1144.37439	1127.99438	925.35883	-960.94965	1298.73718	944.18372	-1110.53455	1289.72095	959.35059	-855.93903	1131.30981	625.87634	-898.95477	1059.90991	463.74524	-891.89679	1043.88599	275.33899	-919.19208	980.71704	72.02979	-959.95355	1005.66748	27.50870	-934.11981	826.95923	72.74545	-1182.99976	1215.68237	635.72107	-1147.93958	1234.81360	456.48917	-1152.63269	1318.04932	281.73651	-1104.14148	1390.77124	76.40090	-1054.39941	1438.06067	48.71709	-1091.51746	1252.96558	30.04044	-997.18982	1185.05261	1660.85278																		 
6	0.050	-946.79828	1091.32837	1604.73132	-1079.42920	1089.63855	1614.58008	-955.76514	1214.38306	1548.91565	-1085.99341	1207.80115	1558.60999	-1026.35010	1235.64954	1403.98633	-1032.39026	1286.39441	1094.26135	-1016.46301	1118.06042	1319.99597	-1011.32886	1086.33594	1151.93408	-1133.08350	1287.65125	1236.02051	-864.62653	1179.60938	1358.05383	-803.64539	1226.69275	1162.02502	-795.14050	1238.05566	1038.77344	-796.36975	1214.37109	911.03918	-829.41840	1187.84668	796.10431	-785.49274	1222.22034	797.47607	-794.59857	1201.47925	716.34839	-1177.88013	1142.65161	1348.37134	-1255.55054	1111.28613	1132.26685	-1266.87891	1075.21936	1025.33948	-1262.17029	1029.93994	896.46454	-1218.66870	988.20648	810.21570	-1267.25330	1007.95758	798.93719	-1251.75537	970.20233	736.61542	-906.56683	1129.34375	925.52045	-1144.17883	1121.36694	924.58655	-959.82214	1291.19739	943.37335	-1109.44092	1282.91443	958.44775	-856.44916	1124.56177	624.61395	-899.54999	1054.35327	462.42374	-892.31860	1036.52588	274.50299	-919.13763	970.79163	71.72005	-960.05396	994.76501	27.16814	-932.76794	816.38782	73.82632	-1182.51379	1210.00940	635.23242	-1148.01099	1230.16150	456.16934	-1152.65552	1315.33777	282.16965	-1104.29004	1390.15784	77.40786	-1054.39539	1437.78198	50.32645	-1091.64465	1252.78491	29.98898	-996.36023	1178.02710	1659.74475																		 
7	0.060	-945.62720	1084.13269	1604.05908	-1078.27344	1082.52026	1614.02502	-954.60608	1207.21692	1548.08167	-1084.88599	1200.58508	1557.86011	-1025.12744	1228.24048	1403.34363	-1031.18140	1279.05896	1093.60083	-1015.61188	1110.60291	1319.30676	-1010.91718	1078.81165	1151.35242	-1131.67639	1280.66638	1235.40076	-863.52716	1171.64087	1357.09875	-803.09381	1218.92053	1160.93579	-795.06079	1230.86731	1037.56921	-796.79443	1208.24060	909.61176	-830.66931	1183.76563	794.40222	-786.18323	1217.33276	796.12781	-795.76276	1197.44543	714.77045	-1176.99182	1135.72949	1347.78894	-1254.64270	1104.62842	1131.61133	-1265.90332	1068.32739	1024.75256	-1260.92908	1022.49561	896.03638	-1217.23633	980.19867	810.23358	-1265.65234	1000.07751	798.65845	-1250.02417	961.98700	736.60443	-906.33771	1121.66382	924.49103	-1144.01294	1114.61743	923.90094	-958.57489	1283.49182	942.65216	-1108.21899	1276.02051	957.66272	-856.99933	1117.40454	623.58087	-899.91266	1048.18140	461.30780	-892.69904	1029.81689	273.58115	-919.26819	962.94794	71.13854	-960.31207	986.74542	26.42398	-932.25049	808.41400	73.54450	-1182.25635	1204.27271	634.84247	-1148.13220	1225.30981	455.88153	-1152.68298	1312.46570	282.68250	-1104.56409	1389.46423	78.55602	-1054.65552	1437.33325	52.01696	-1091.65808	1252.65051	29.83190	-995.14386	1170.97766	1658.96863																		 
8	0.070	-944.45782	1076.94482	1603.54810	-1077.12036	1075.36462	1613.56458	-953.42651	1199.97070	1547.37366	-1083.72095	1193.33142	1557.21362	-1023.80505	1220.77734	1402.70996	-1029.84595	1271.58301	1093.00171	-1014.72729	1103.01221	1318.69727	-1010.32001	1071.24646	1150.71619	-1130.17883	1273.62097	1234.87244	-862.32141	1163.54211	1356.18140	-802.37445	1210.90942	1159.90247	-794.90436	1223.29736	1036.49023	-797.17432	1201.91003	908.26245	-831.58173	1178.68591	792.91779	-786.88086	1212.03027	794.81201	-796.94812	1193.13306	713.24377	-1176.08191	1128.76428	1347.25671	-1253.68958	1098.01086	1131.03052	-1264.89001	1061.60535	1024.20276	-1259.64136	1015.27502	895.68085	-1215.72754	972.41541	810.32404	-1264.01660	992.48242	798.36127	-1248.30750	954.02490	736.67432	-905.99243	1113.59985	923.66382	-1143.79126	1107.76733	923.29291	-957.26031	1275.65540	942.00238	-1106.89929	1268.96423	956.96399	-857.44293	1109.87866	622.80365	-899.95929	1041.32410	460.35419	-892.95905	1023.78400	272.46429	-919.84564	957.64514	69.77683	-960.98743	981.48663	25.17234	-932.49561	803.01447	71.78772	-1182.01807	1198.47937	634.61292	-1148.21960	1220.28027	455.67825	-1152.64502	1309.48572	283.24854	-1104.97925	1388.68811	79.85113	-1054.91565	1437.04492	54.06897	-1091.85229	1252.45508	29.79654	-993.84625	1163.86499	1658.26538																		 
